<svg xmlns="http://www.w3.org/2000/svg" width="39.6" height="34.576" viewBox="-3 2 60 30" preserveAspectRatio="xMidYMid meet">
  <path fill="#01010C" d="M8.834 6.098c6.823 8.821 15.113 16.417 24.43 22.538 2.698 1.772 5.205-2.556 2.524-4.317-8.965-5.89-16.858-13.274-23.419-21.756-.827-1.069-2.666-.87-3.535 0-1.055 1.055-.83 2.464 0 3.535Z"/>
  <path fill="#01010C" d="M35.34.713.724 30.328c-1.026.878-.902 2.633 0 3.535 1.018 1.018 2.507.88 3.536 0L38.876 4.248c1.026-.878.902-2.633 0-3.535-1.018-1.018-2.507-.88-3.536 0Z"/>
</svg>
